<?xml version="1.0" standalone="no"?>
<!DOCTYPE svg PUBLIC "-//W3C//DTD SVG 20010904//EN"
 "http://www.w3.org/TR/2001/REC-SVG-20010904/DTD/svg10.dtd">
<svg version="1.0" xmlns="http://www.w3.org/2000/svg"
 width="746.000000pt" height="746.000000pt" viewBox="0 0 746.000000 746.000000"
 preserveAspectRatio="xMidYMid meet">
<metadata>
Created by potrace 1.11, written by Peter Selinger 2001-2013
</metadata>
<g transform="translate(0.000000,746.000000) scale(0.100000,-0.100000)"
fill="#000000" stroke="none">
<path d="M5316 7398 c-3 -7 -4 -150 -4 -318 0 -168 -1 -310 -1 -316 -1 -6 -51
-10 -146 -9 -80 0 -145 -2 -146 -5 -3 -17 -4 -397 -1 -407 3 -10 42 -13 151
-13 l146 0 0 -583 c1 -320 4 -602 9 -626 35 -201 196 -380 411 -459 143 -52
238 -63 566 -66 l209 -1 1 25 c1 30 1 420 0 435 -1 7 -60 11 -159 11 -121 1
-170 5 -210 18 -53 18 -95 57 -114 105 -10 25 -20 1101 -10 1129 3 9 62 12
248 12 225 0 244 1 245 18 1 22 1 383 0 397 -1 7 -84 10 -242 10 -154 0 -243
3 -247 10 -3 5 -6 152 -7 325 l0 315 -348 3 c-273 2 -348 0 -351 -10z"/>
<path d="M1447 6844 c-1 -1 -31 -5 -67 -8 -71 -7 -166 -28 -245 -52 -86 -26
-264 -117 -285 -146 -3 -3 -12 -8 -19 -10 -12 -2 -15 15 -15 92 l-1 95 -343 1
-342 1 0 -1111 0 -1111 345 1 c190 1 348 4 352 7 3 4 5 311 5 684 0 377 3 702
9 732 35 205 199 322 454 324 187 2 329 -59 407 -174 67 -99 67 -93 68 -868 0
-382 3 -697 5 -699 3 -4 623 -6 683 -3 10 1 12 158 11 774 -1 835 -1 838 -56
977 -22 55 -73 143 -93 160 -3 3 -18 20 -32 38 -34 41 -152 142 -165 142 -6 0
-16 6 -22 14 -26 31 -290 122 -361 124 -8 1 -36 4 -61 7 -41 5 -228 12 -232 9z"/>
<path d="M3727 6843 c-1 0 -38 -4 -82 -7 -81 -6 -120 -11 -165 -22 -14 -3 -36
-8 -50 -10 -89 -16 -262 -83 -355 -138 -53 -31 -154 -107 -196 -147 -94 -88
-174 -225 -210 -356 -27 -96 -26 -93 -45 -253 -11 -93 -4 -389 11 -500 46
-323 206 -545 500 -692 79 -40 230 -96 278 -103 35 -4 69 -12 95 -19 95 -27
455 -28 592 -1 114 22 217 48 226 58 4 4 14 7 22 7 30 0 221 101 297 157 185
137 281 289 327 517 30 148 32 585 3 726 -3 14 -8 38 -11 54 -18 101 -87 245
-158 331 -157 191 -417 332 -684 371 -20 3 -42 7 -49 9 -28 9 -338 26 -346 18z
m225 -513 c86 -18 183 -71 230 -125 38 -43 70 -108 90 -182 18 -68 21 -107 22
-303 1 -245 -11 -328 -59 -428 -67 -139 -225 -220 -428 -220 -260 0 -417 120
-468 358 -15 70 -20 423 -7 516 16 114 61 214 128 281 95 96 313 142 492 103z"/>
<path d="M1110 4816 l0 -322 -165 1 c-91 0 -166 -2 -166 -5 -1 -3 -2 -54 -3
-113 -2 -117 -2 -117 59 -117 11 0 28 0 38 0 9 0 24 0 32 0 35 2 132 1 155 0
14 -1 31 -2 38 -3 9 0 12 -143 13 -676 1 -372 1 -680 0 -684 -1 -4 7 -42 18
-83 48 -189 190 -324 401 -383 41 -11 107 -23 145 -27 59 -5 275 -8 366 -5
l26 1 -1 124 c-1 68 -4 128 -8 131 -4 4 -76 8 -160 10 -180 2 -242 18 -318 82
-24 20 -58 81 -71 127 -9 29 -14 1374 -6 1382 8 8 107 9 107 1 0 -5 5 -5 11
-1 14 8 134 8 148 0 6 -4 11 -4 11 1 0 4 25 8 55 8 30 0 55 -3 55 -7 0 -4 6
-5 14 -2 21 8 106 10 106 2 0 -3 12 -3 27 1 l28 7 1 112 c1 96 -2 112 -15 113
-9 1 -134 2 -278 3 -144 0 -264 4 -268 7 -3 4 -7 148 -8 320 l-2 314 -192 1
-193 2 0 -322z"/>
<path d="M2998 4515 c-1 -2 -26 -6 -54 -8 -286 -31 -574 -192 -716 -401 -73
-106 -127 -255 -144 -391 -3 -27 -7 -61 -9 -75 -6 -36 -6 -350 -1 -380 2 -14
7 -52 11 -85 22 -194 122 -397 256 -520 123 -113 317 -215 459 -241 14 -3 33
-7 43 -10 108 -33 445 -39 583 -10 238 49 421 141 560 282 87 88 112 127 185
289 15 34 48 173 56 238 10 79 10 368 1 472 -31 329 -202 576 -503 728 -61 30
-226 84 -286 92 -24 4 -55 9 -69 12 -28 5 -366 13 -372 8z m317 -280 c75 -13
192 -56 255 -93 155 -94 229 -214 265 -434 15 -86 14 -459 0 -543 -22 -124
-79 -250 -148 -324 -69 -73 -237 -160 -337 -175 -19 -3 -48 -9 -65 -12 -32 -7
-240 -8 -265 -1 -8 2 -33 7 -55 11 -117 22 -256 95 -335 176 -129 130 -173
290 -172 620 0 362 73 544 268 670 72 48 197 95 274 105 30 4 56 8 58 9 5 5
217 -3 257 -9z"/>
<path d="M5319 4516 c-2 -2 -24 -6 -49 -10 -71 -9 -112 -17 -155 -28 -22 -5
-41 -10 -42 -9 -2 0 -32 -11 -68 -25 -295 -111 -495 -316 -569 -584 -35 -125
-45 -231 -42 -445 4 -220 5 -231 37 -360 67 -267 255 -478 519 -585 30 -12 64
-26 75 -30 31 -13 134 -38 186 -45 14 -3 52 -8 84 -13 62 -10 343 -8 385 2 14
3 41 8 60 11 112 15 272 71 375 133 199 118 327 276 390 479 43 139 50 210 49
468 -1 237 -16 337 -73 479 -91 228 -288 404 -556 497 -44 15 -107 32 -140 38
-33 6 -71 14 -85 17 -26 6 -375 15 -381 10z m311 -280 c30 -6 74 -16 90 -21 3
-1 19 -5 35 -10 65 -18 176 -82 236 -137 81 -74 143 -204 166 -349 4 -30 8
-157 8 -284 -1 -262 -13 -342 -69 -460 -84 -176 -237 -277 -491 -322 -58 -11
-231 -7 -295 6 -294 59 -467 229 -514 506 -23 135 -24 434 -1 558 25 132 73
241 140 315 76 84 235 171 343 188 20 3 53 9 72 13 39 8 226 6 280 -3z"/>
<path d="M9 3030 c0 -22 -1 -705 -1 -1517 l-1 -1478 341 -2 341 -2 3 104 3
104 35 -30 c113 -99 326 -182 500 -195 87 -7 365 -2 365 6 0 1 15 3 34 6 46 6
73 11 91 18 8 3 26 8 40 10 55 11 234 86 250 106 3 3 21 16 40 28 38 22 106
92 153 155 56 75 117 229 133 337 3 19 7 41 9 48 23 65 27 655 7 787 -20 127
-22 135 -53 230 -42 125 -93 208 -184 300 -102 103 -327 198 -525 222 -71 9
-317 9 -400 0 -143 -15 -303 -76 -418 -162 l-62 -45 0 505 0 505 -350 0 -350
0 -1 -40z m1224 -1255 c145 -7 224 -36 297 -108 97 -96 131 -218 135 -489 8
-503 -117 -672 -496 -671 -254 1 -390 115 -440 368 -23 120 -20 452 5 565 43
195 150 301 332 330 37 6 70 13 73 15 2 3 8 2 12 -1 5 -3 42 -7 82 -9z"/>
<path d="M6729 3008 c0 -35 -1 -262 0 -505 l0 -442 -87 59 c-174 117 -327 156
-612 154 -511 -3 -816 -204 -915 -602 -13 -51 -26 -121 -30 -155 -3 -34 -8
-80 -10 -102 -5 -47 -6 -496 -1 -540 20 -182 29 -234 58 -325 65 -204 179
-336 373 -430 165 -79 301 -108 530 -111 270 -3 449 45 618 165 43 31 82 56
85 56 4 0 7 -44 7 -97 l0 -98 343 -2 342 -3 0 1520 0 1520 -350 0 -350 0 -1
-62z m-297 -1251 c152 -48 236 -151 274 -339 18 -89 25 -369 11 -483 -34 -298
-181 -430 -472 -427 -115 2 -140 5 -215 33 -126 46 -204 152 -239 325 -15 71
-18 129 -16 294 2 220 15 305 60 406 46 101 164 188 273 201 26 3 49 7 51 9
10 10 231 -6 273 -19z"/>
<path d="M3468 2275 c-1 -1 -41 -6 -88 -9 -263 -21 -507 -118 -689 -273 l-35
-30 80 -62 c43 -34 93 -73 109 -85 17 -13 73 -57 126 -99 136 -105 125 -102
178 -57 69 57 153 99 255 125 80 21 108 23 261 21 133 -3 186 -8 242 -23 134
-38 210 -101 239 -200 19 -64 25 -223 10 -229 -6 -1 -202 -5 -436 -7 -234 -3
-441 -7 -460 -11 -19 -3 -48 -9 -65 -12 -16 -3 -43 -8 -60 -11 -62 -10 -222
-70 -287 -106 -135 -76 -240 -196 -281 -323 -22 -67 -27 -98 -28 -179 0 -89 7
-133 36 -217 66 -193 216 -332 438 -408 46 -16 104 -32 128 -35 24 -4 46 -8
50 -11 28 -17 411 -26 514 -11 54 7 79 13 160 33 40 9 169 66 173 76 2 4 10 8
17 8 8 0 20 6 27 13 7 6 32 24 56 40 l42 27 0 -94 0 -95 340 0 c309 0 339 2
344 17 2 9 3 366 2 792 -2 562 -6 789 -15 825 -54 225 -184 379 -405 480 -114
52 -265 93 -405 110 -30 4 -63 9 -75 12 -23 5 -492 13 -498 8z m696 -1413 c-2
-184 -38 -257 -161 -326 -93 -53 -167 -68 -343 -70 -237 -4 -375 47 -425 156
-26 57 -27 145 -2 195 36 69 126 123 232 139 22 3 42 8 44 10 2 2 150 2 330 1
l326 -2 -1 -103z"/>
</g>
</svg>
